# xmcd
#
# Track frame offsets:
#	151
#	14810
#	28482
#	38537
#	50571
#	65312
#	77709
#	88919
#	99051
#	110457
#	121026
#	133272
#	148859
#	170132
#	186455
#	196265
#	216671
#	230507
#	245860
#	259867
#	271686
#	285769
#	296750
#	316385
#	336327
#
# Disc length: 4717 seconds
#
# Revision: 0
# Processed by: cddbd v1.5.2PL0 Copyright (c) Steve Scherf et al.
# Submitted via: EasyCDDAExtractor 10.0.3.1
#
DISCID=87126b19
DTITLE=Various Artist - More Sweet Hearts - CD2
DYEAR=1900
DGENRE=Soul
TTITLE0=Darlene Love (Warner Spector) - Lord If You're A Woman
TTITLE1=Timi Yuro (Mercury) - You Can Have Him
TTITLE2=Miss Toni Fisher (Signet) - The Big Hurt
TTITLE3=Ketty Lester (Era) - Love Letters
TTITLE4=Aretha Franklin (Columbia) - Try A Little Tenderness
TTITLE5=Barbara and Brenda (Dynamo) - Too Young To Be Fooled
TTITLE6=Doris Duke (Canyon) - Feet Start Walking
TTITLE7=Dana Valery (Columbia) - You Don't Know Where Your Interest Lies
TTITLE8=Jeanie Fortune (RCA) - Angry Eyes
TTITLE9=Doris Allen (SSS International) - Hanging Heavy In My Mind
TTITLE10=Barbara Lynn (Copyright) - Sugar Coated Love
TTITLE11=Evie Sands (Cameo Parkway) - Angel Of The Morning
TTITLE12=Barry St John (Major Minor) - What's A Matter, Baby?
TTITLE13=Merry Clayton (Ode) - Gimme Shelter
TTITLE14=Dee Dee Sharp (Atco) - Bye Bye Baby
TTITLE15=Dee Dee Warwick (Atco) - Down So Low
TTITLE16=The Staple Singers (Warner) - Love Being Your Fool
TTITLE17=Mattie Moultrie (Columbia) - Saddest Story Ever Told
TTITLE18=Jackie Moore (Atlantic) - Sometimes It's Got To Rain
TTITLE19=Gloria Gaynor (Jo Ci Da) - She'll Be Sorry
TTITLE20=Linda Jones (Loma) - I Who Have Nothing
TTITLE21=Jean Wells (Calla) - After Loving You
TTITLE22=Dusty Springfield (Philips) - Heartbeat
TTITLE23=The Staple Singers (Curtom) - New Orleans
TTITLE24=Candi Staton (Sugarhill) - Suspicious Minds
EXTD=
EXTT0=
EXTT1=
EXTT2=
EXTT3=
EXTT4=
EXTT5=
EXTT6=
EXTT7=
EXTT8=
EXTT9=
EXTT10=
EXTT11=
EXTT12=
EXTT13=
EXTT14=
EXTT15=
EXTT16=
EXTT17=
EXTT18=
EXTT19=
EXTT20=
EXTT21=
EXTT22=
EXTT23=
EXTT24=
PLAYORDER=
